<svg xmlns="http://www.w3.org/2000/svg" viewBox="0 0 1000 1000" width="1000" height="1000">
<defs>
<radialGradient id="bg" cx="50%" cy="50%" r="50%">
  <stop offset="0%" stop-color="#0a0908"/>
  <stop offset="100%" stop-color="#050404"/>
</radialGradient>
<radialGradient id="coreglow" cx="50%" cy="50%" r="50%">
  <stop offset="0%" stop-color="#2a2518" stop-opacity="0.6"/>
  <stop offset="60%" stop-color="#1a1510" stop-opacity="0.2"/>
  <stop offset="100%" stop-color="#0a0808" stop-opacity="0"/>
</radialGradient>
</defs>
<rect width="1000" height="1000" fill="url(#bg)"/>
<circle cx="500" cy="500" r="80" fill="url(#coreglow)"/>
<polygon points="910.3,736.9 500.0,946.2 89.7,736.9 113.6,276.9 500.0,26.2 886.4,276.9" fill="#c8aa78" opacity="0.8"/>
<polygon points="910.3,736.9 500.0,946.2 89.7,736.9 113.6,276.9 500.0,26.2 886.4,276.9" fill="none" stroke="#c8aa78" stroke-width="1.5" opacity="0.8"/>
<line x1="898.4" y1="730.0" x2="867.3" y2="712.1" stroke="#c8aa78" stroke-width="0.5" opacity="0.08"/>
<line x1="101.6" y1="730.0" x2="132.7" y2="712.1" stroke="#c8aa78" stroke-width="0.5" opacity="0.08"/>
<line x1="500.0" y1="40.0" x2="500.0" y2="75.8" stroke="#c8aa78" stroke-width="0.5" opacity="0.08"/>
<polygon points="890.3,688.0 591.7,901.8 227.7,841.5 86.5,500.0 231.4,163.2 594.1,87.7 878.3,317.8" fill="#af9161" opacity="0.7545454545454545"/>
<polygon points="890.3,688.0 591.7,901.8 227.7,841.5 86.5,500.0 231.4,163.2 594.1,87.7 878.3,317.8" fill="none" stroke="#b49664" stroke-width="1.5" opacity="0.7545454545454546"/>
<line x1="882.2" y1="684.0" x2="849.9" y2="668.5" stroke="#b49664" stroke-width="0.5" opacity="0.07272727272727272"/>
<line x1="235.5" y1="831.6" x2="257.9" y2="803.6" stroke="#b49664" stroke-width="0.5" opacity="0.07272727272727272"/>
<line x1="235.5" y1="168.4" x2="257.9" y2="196.4" stroke="#b49664" stroke-width="0.5" opacity="0.07272727272727272"/>
<line x1="882.2" y1="316.0" x2="849.9" y2="331.5" stroke="#b49664" stroke-width="0.5" opacity="0.07272727272727272"/>
<polygon points="865.9,633.2 688.9,827.1 430.9,891.8 201.7,750.3 122.3,500.0 195.2,244.3 432.4,116.5 688.9,172.9 873.8,363.9" fill="#977a55" opacity="0.709090909090909"/>
<polygon points="865.9,633.2 688.9,827.1 430.9,891.8 201.7,750.3 122.3,500.0 195.2,244.3 432.4,116.5 688.9,172.9 873.8,363.9" fill="none" stroke="#a0825a" stroke-width="1.5" opacity="0.7090909090909091"/>
<line x1="864.9" y1="632.8" x2="831.2" y2="620.6" stroke="#a0825a" stroke-width="0.5" opacity="0.06545454545454545"/>
<line x1="432.6" y1="882.4" x2="438.8" y2="847.1" stroke="#a0825a" stroke-width="0.5" opacity="0.06545454545454545"/>
<line x1="111.7" y1="500.0" x2="147.5" y2="500.0" stroke="#a0825a" stroke-width="0.5" opacity="0.06545454545454545"/>
<line x1="432.6" y1="117.6" x2="438.8" y2="152.9" stroke="#a0825a" stroke-width="0.5" opacity="0.06545454545454545"/>
<line x1="864.9" y1="367.2" x2="831.2" y2="379.4" stroke="#a0825a" stroke-width="0.5" opacity="0.06545454545454545"/>
<polygon points="828.0,606.6 704.5,781.4 500.0,863.0 293.9,783.7 173.6,606.0 157.5,388.7 290.1,211.1 500.0,158.0 708.3,213.4 844.1,388.2" fill="#806949" opacity="0.6636363636363636"/>
<polygon points="828.0,606.6 704.5,781.4 500.0,863.0 293.9,783.7 173.6,606.0 157.5,388.7 290.1,211.1 500.0,158.0 708.3,213.4 844.1,388.2" fill="none" stroke="#8c7350" stroke-width="1.5" opacity="0.6636363636363637"/>
<line x1="835.2" y1="608.9" x2="801.2" y2="597.9" stroke="#8c7350" stroke-width="0.5" opacity="0.05818181818181818"/>
<line x1="500.0" y1="852.5" x2="500.0" y2="816.7" stroke="#8c7350" stroke-width="0.5" opacity="0.05818181818181818"/>
<line x1="164.8" y1="608.9" x2="198.8" y2="597.9" stroke="#8c7350" stroke-width="0.5" opacity="0.05818181818181818"/>
<line x1="292.8" y1="214.8" x2="313.9" y2="243.8" stroke="#8c7350" stroke-width="0.5" opacity="0.05818181818181818"/>
<line x1="707.2" y1="214.8" x2="686.1" y2="243.8" stroke="#8c7350" stroke-width="0.5" opacity="0.05818181818181818"/>
<polygon points="796.7,579.5 724.4,724.4 584.4,815.0 418.2,805.2 282.8,717.2 193.5,582.1 185.0,415.6 276.6,276.6 420.5,203.3 582.1,193.5 730.6,269.4 805.2,418.2" fill="#6a5942" opacity="0.6181818181818182"/>
<polygon points="796.7,579.5 724.4,724.4 584.4,815.0 418.2,805.2 282.8,717.2 193.5,582.1 185.0,415.6 276.6,276.6 420.5,203.3 582.1,193.5 730.6,269.4 805.2,418.2" fill="none" stroke="#78644b" stroke-width="1.5" opacity="0.6181818181818182"/>
<line x1="805.9" y1="582.0" x2="771.3" y2="572.7" stroke="#78644b" stroke-width="0.5" opacity="0.05090909090909091"/>
<line x1="582.0" y1="805.9" x2="572.7" y2="771.3" stroke="#78644b" stroke-width="0.5" opacity="0.05090909090909091"/>
<line x1="276.1" y1="723.9" x2="301.4" y2="698.6" stroke="#78644b" stroke-width="0.5" opacity="0.05090909090909091"/>
<line x1="194.1" y1="418.0" x2="228.7" y2="427.3" stroke="#78644b" stroke-width="0.5" opacity="0.05090909090909091"/>
<line x1="418.0" y1="194.1" x2="427.3" y2="228.7" stroke="#78644b" stroke-width="0.5" opacity="0.05090909090909091"/>
<line x1="723.9" y1="276.1" x2="698.6" y2="301.4" stroke="#78644b" stroke-width="0.5" opacity="0.05090909090909091"/>
<polygon points="769.1,561.4 724.0,678.6 625.0,759.6 500.0,778.4 381.8,745.4 281.5,674.3 218.6,564.2 221.5,436.4 284.9,328.4 381.3,253.6 500.0,216.8 625.5,239.4 720.6,324.1 766.2,439.2" fill="#564938" opacity="0.5727272727272728"/>
<polygon points="769.1,561.4 724.0,678.6 625.0,759.6 500.0,778.4 381.8,745.4 281.5,674.3 218.6,564.2 221.5,436.4 284.9,328.4 381.3,253.6 500.0,216.8 625.5,239.4 720.6,324.1 766.2,439.2" fill="none" stroke="#645541" stroke-width="1.5" opacity="0.5727272727272728"/>
<line x1="773.8" y1="562.5" x2="738.9" y2="554.5" stroke="#645541" stroke-width="0.5" opacity="0.04363636363636363"/>
<line x1="621.8" y1="753.0" x2="606.3" y2="720.7" stroke="#645541" stroke-width="0.5" opacity="0.04363636363636363"/>
<line x1="378.2" y1="753.0" x2="393.7" y2="720.7" stroke="#645541" stroke-width="0.5" opacity="0.04363636363636363"/>
<line x1="226.2" y1="562.5" x2="261.1" y2="554.5" stroke="#645541" stroke-width="0.5" opacity="0.04363636363636363"/>
<line x1="280.4" y1="324.9" x2="308.5" y2="347.2" stroke="#645541" stroke-width="0.5" opacity="0.04363636363636363"/>
<line x1="500.0" y1="219.2" x2="500.0" y2="255.0" stroke="#645541" stroke-width="0.5" opacity="0.04363636363636363"/>
<line x1="719.6" y1="324.9" x2="691.5" y2="347.2" stroke="#645541" stroke-width="0.5" opacity="0.04363636363636363"/>
<polygon points="742.1,551.5 704.2,648.3 623.5,714.0 525.0,737.6 426.1,727.5 334.4,683.9 269.5,602.6 252.9,500.0 281.7,402.8 340.0,322.2 423.5,264.6 526.4,249.0 623.5,286.0 693.3,359.6 734.0,450.3" fill="#473e30" opacity="0.5272727272727273"/>
<polygon points="742.1,551.5 704.2,648.3 623.5,714.0 525.0,737.6 426.1,727.5 334.4,683.9 269.5,602.6 252.9,500.0 281.7,402.8 340.0,322.2 423.5,264.6 526.4,249.0 623.5,286.0 693.3,359.6 734.0,450.3" fill="none" stroke="#554b3a" stroke-width="1.5" opacity="0.5272727272727273"/>
<line x1="739.6" y1="550.9" x2="704.6" y2="543.5" stroke="#554b3a" stroke-width="0.5" opacity="0.03636363636363637"/>
<line x1="622.5" y1="712.2" x2="604.6" y2="681.1" stroke="#554b3a" stroke-width="0.5" opacity="0.03636363636363637"/>
<line x1="424.3" y1="733.0" x2="435.4" y2="698.9" stroke="#554b3a" stroke-width="0.5" opacity="0.03636363636363637"/>
<line x1="276.2" y1="599.7" x2="308.9" y2="585.1" stroke="#554b3a" stroke-width="0.5" opacity="0.03636363636363637"/>
<line x1="276.2" y1="400.3" x2="308.9" y2="414.9" stroke="#554b3a" stroke-width="0.5" opacity="0.03636363636363637"/>
<line x1="424.3" y1="267.0" x2="435.4" y2="301.1" stroke="#554b3a" stroke-width="0.5" opacity="0.03636363636363637"/>
<line x1="622.5" y1="287.8" x2="604.6" y2="318.9" stroke="#554b3a" stroke-width="0.5" opacity="0.03636363636363637"/>
<line x1="739.6" y1="449.1" x2="704.6" y2="456.5" stroke="#554b3a" stroke-width="0.5" opacity="0.03636363636363637"/>
<polygon points="711.5,539.5 681.5,612.4 624.8,665.2 555.5,695.2 481.0,704.9 405.3,690.1 340.8,645.1 302.7,576.4 295.0,500.0 310.6,426.6 346.4,360.0 404.6,308.4 480.2,286.1 557.3,298.7 622.7,337.5 673.5,392.6 706.6,461.4" fill="#3a3428" opacity="0.4818181818181818"/>
<polygon points="711.5,539.5 681.5,612.4 624.8,665.2 555.5,695.2 481.0,704.9 405.3,690.1 340.8,645.1 302.7,576.4 295.0,500.0 310.6,426.6 346.4,360.0 404.6,308.4 480.2,286.1 557.3,298.7 622.7,337.5 673.5,392.6 706.6,461.4" fill="none" stroke="#484132" stroke-width="1.5" opacity="0.48181818181818187"/>
<line x1="705.6" y1="538.4" x2="670.4" y2="531.8" stroke="#484132" stroke-width="0.5" opacity="0.02909090909090909"/>
<line x1="626.1" y1="666.9" x2="604.5" y2="638.3" stroke="#484132" stroke-width="0.5" opacity="0.02909090909090909"/>
<line x1="480.7" y1="708.3" x2="484.0" y2="672.6" stroke="#484132" stroke-width="0.5" opacity="0.02909090909090909"/>
<line x1="345.4" y1="640.9" x2="371.9" y2="616.8" stroke="#484132" stroke-width="0.5" opacity="0.02909090909090909"/>
<line x1="290.8" y1="500.0" x2="326.7" y2="500.0" stroke="#484132" stroke-width="0.5" opacity="0.02909090909090909"/>
<line x1="345.4" y1="359.1" x2="371.9" y2="383.2" stroke="#484132" stroke-width="0.5" opacity="0.02909090909090909"/>
<line x1="480.7" y1="291.7" x2="484.0" y2="327.4" stroke="#484132" stroke-width="0.5" opacity="0.02909090909090909"/>
<line x1="626.1" y1="333.1" x2="604.5" y2="361.7" stroke="#484132" stroke-width="0.5" opacity="0.02909090909090909"/>
<line x1="705.6" y1="461.6" x2="670.4" y2="468.2" stroke="#484132" stroke-width="0.5" opacity="0.02909090909090909"/>
<polygon points="675.1,529.2 652.2,582.3 614.3,624.2 567.8,654.5 514.3,672.2 456.5,671.9 402.5,649.3 362.1,607.3 339.3,555.2 331.8,500.0 338.1,444.4 361.0,391.8 402.4,350.5 456.7,329.1 514.1,329.2 567.6,345.9 615.0,375.1 653.5,416.9 675.8,470.7" fill="#2e2b23" opacity="0.43636363636363634"/>
<polygon points="675.1,529.2 652.2,582.3 614.3,624.2 567.8,654.5 514.3,672.2 456.5,671.9 402.5,649.3 362.1,607.3 339.3,555.2 331.8,500.0 338.1,444.4 361.0,391.8 402.4,350.5 456.7,329.1 514.1,329.2 567.6,345.9 615.0,375.1 653.5,416.9 675.8,470.7" fill="none" stroke="#3c372d" stroke-width="1.5" opacity="0.4363636363636364"/>
<line x1="671.0" y1="528.5" x2="635.6" y2="522.6" stroke="#3c372d" stroke-width="0.5" opacity="0.021818181818181816"/>
<line x1="617.4" y1="627.5" x2="593.1" y2="601.2" stroke="#3c372d" stroke-width="0.5" opacity="0.021818181818181816"/>
<line x1="514.3" y1="672.7" x2="511.4" y2="637.0" stroke="#3c372d" stroke-width="0.5" opacity="0.021818181818181816"/>
<line x1="405.2" y1="645.1" x2="424.8" y2="615.1" stroke="#3c372d" stroke-width="0.5" opacity="0.021818181818181816"/>
<line x1="336.1" y1="556.3" x2="370.0" y2="544.6" stroke="#3c372d" stroke-width="0.5" opacity="0.021818181818181816"/>
<line x1="336.1" y1="443.7" x2="370.0" y2="455.4" stroke="#3c372d" stroke-width="0.5" opacity="0.021818181818181816"/>
<line x1="405.2" y1="354.9" x2="424.8" y2="384.9" stroke="#3c372d" stroke-width="0.5" opacity="0.021818181818181816"/>
<line x1="514.3" y1="327.3" x2="511.4" y2="363.0" stroke="#3c372d" stroke-width="0.5" opacity="0.021818181818181816"/>
<line x1="617.4" y1="372.5" x2="593.1" y2="398.8" stroke="#3c372d" stroke-width="0.5" opacity="0.021818181818181816"/>
<line x1="671.0" y1="471.5" x2="635.6" y2="477.4" stroke="#3c372d" stroke-width="0.5" opacity="0.021818181818181816"/>
<polygon points="635.6,521.5 619.4,560.9 594.5,594.5 561.9,621.5 521.9,638.4 477.8,639.9 436.5,624.5 403.8,596.2 381.0,560.6 367.4,521.0 364.0,478.5 374.4,436.0 400.0,400.0 437.1,376.5 478.9,366.7 520.9,368.3 561.4,379.5 598.3,401.7 626.1,435.8 639.0,478.0" fill="#24211c" opacity="0.3909090909090909"/>
<polygon points="635.6,521.5 619.4,560.9 594.5,594.5 561.9,621.5 521.9,638.4 477.8,639.9 436.5,624.5 403.8,596.2 381.0,560.6 367.4,521.0 364.0,478.5 374.4,436.0 400.0,400.0 437.1,376.5 478.9,366.7 520.9,368.3 561.4,379.5 598.3,401.7 626.1,435.8 639.0,478.0" fill="none" stroke="#302d26" stroke-width="1.5" opacity="0.39090909090909093"/>
<line x1="635.8" y1="521.5" x2="600.4" y2="515.9" stroke="#302d26" stroke-width="0.5" opacity="0.014545454545454542"/>
<line x1="597.2" y1="597.2" x2="571.9" y2="571.9" stroke="#302d26" stroke-width="0.5" opacity="0.014545454545454542"/>
<line x1="521.5" y1="635.8" x2="515.9" y2="600.4" stroke="#302d26" stroke-width="0.5" opacity="0.014545454545454542"/>
<line x1="437.6" y1="622.5" x2="453.8" y2="590.6" stroke="#302d26" stroke-width="0.5" opacity="0.014545454545454542"/>
<line x1="377.5" y1="562.4" x2="409.4" y2="546.2" stroke="#302d26" stroke-width="0.5" opacity="0.014545454545454542"/>
<line x1="364.2" y1="478.5" x2="399.6" y2="484.1" stroke="#302d26" stroke-width="0.5" opacity="0.014545454545454542"/>
<line x1="402.8" y1="402.8" x2="428.1" y2="428.1" stroke="#302d26" stroke-width="0.5" opacity="0.014545454545454542"/>
<line x1="478.5" y1="364.2" x2="484.1" y2="399.6" stroke="#302d26" stroke-width="0.5" opacity="0.014545454545454542"/>
<line x1="562.4" y1="377.5" x2="546.2" y2="409.4" stroke="#302d26" stroke-width="0.5" opacity="0.014545454545454542"/>
<line x1="622.5" y1="437.6" x2="590.6" y2="453.8" stroke="#302d26" stroke-width="0.5" opacity="0.014545454545454542"/>
<polygon points="598.1,514.1 589.8,541.0 575.9,565.8 555.7,586.6 529.5,600.4 500.0,604.2 471.2,598.0 446.1,583.8 425.5,564.6 409.3,541.4 398.9,514.5 396.8,485.2 404.9,456.6 422.2,432.6 445.7,415.5 472.2,405.3 500.0,400.9 528.5,402.9 556.0,412.8 579.1,431.4 594.3,456.9 600.2,485.6" fill="#1b1a17" opacity="0.34545454545454546"/>
<polygon points="598.1,514.1 589.8,541.0 575.9,565.8 555.7,586.6 529.5,600.4 500.0,604.2 471.2,598.0 446.1,583.8 425.5,564.6 409.3,541.4 398.9,514.5 396.8,485.2 404.9,456.6 422.2,432.6 445.7,415.5 472.2,405.3 500.0,400.9 528.5,402.9 556.0,412.8 579.1,431.4 594.3,456.9 600.2,485.6" fill="none" stroke="#262420" stroke-width="1.5" opacity="0.3454545454545455"/>
<line x1="600.6" y1="514.5" x2="565.2" y2="509.4" stroke="#262420" stroke-width="0.5" opacity="0.007272727272727275"/>
<line x1="576.8" y1="566.6" x2="549.8" y2="543.1" stroke="#262420" stroke-width="0.5" opacity="0.007272727272727275"/>
<line x1="528.6" y1="597.5" x2="518.5" y2="563.2" stroke="#262420" stroke-width="0.5" opacity="0.007272727272727275"/>
<line x1="471.4" y1="597.5" x2="481.5" y2="563.2" stroke="#262420" stroke-width="0.5" opacity="0.007272727272727275"/>
<line x1="423.2" y1="566.6" x2="450.2" y2="543.1" stroke="#262420" stroke-width="0.5" opacity="0.007272727272727275"/>
<line x1="399.4" y1="514.5" x2="434.8" y2="509.4" stroke="#262420" stroke-width="0.5" opacity="0.007272727272727275"/>
<line x1="407.5" y1="457.8" x2="440.1" y2="472.7" stroke="#262420" stroke-width="0.5" opacity="0.007272727272727275"/>
<line x1="445.0" y1="414.5" x2="464.4" y2="444.6" stroke="#262420" stroke-width="0.5" opacity="0.007272727272727275"/>
<line x1="500.0" y1="398.3" x2="500.0" y2="434.2" stroke="#262420" stroke-width="0.5" opacity="0.007272727272727275"/>
<line x1="555.0" y1="414.5" x2="535.6" y2="444.6" stroke="#262420" stroke-width="0.5" opacity="0.007272727272727275"/>
<line x1="592.5" y1="457.8" x2="559.9" y2="472.7" stroke="#262420" stroke-width="0.5" opacity="0.007272727272727275"/>
<polygon points="563.5,508.4 560.1,524.9 552.8,540.5 541.2,553.7 525.9,562.5 508.7,566.0 491.5,564.5 475.5,559.1 461.0,550.8 448.4,539.6 438.5,525.5 432.9,508.8 432.9,491.2 438.5,474.5 448.4,460.4 461.0,449.2 475.5,440.9 491.5,435.5 508.7,434.0 525.9,437.5 541.2,446.3 552.8,459.5 560.1,475.1 563.5,491.6" fill="#131312" opacity="0.3"/>
<polygon points="563.5,508.4 560.1,524.9 552.8,540.5 541.2,553.7 525.9,562.5 508.7,566.0 491.5,564.5 475.5,559.1 461.0,550.8 448.4,539.6 438.5,525.5 432.9,508.8 432.9,491.2 438.5,474.5 448.4,460.4 461.0,449.2 475.5,440.9 491.5,435.5 508.7,434.0 525.9,437.5 541.2,446.3 552.8,459.5 560.1,475.1 563.5,491.6" fill="none" stroke="#1c1c1a" stroke-width="1.5" opacity="0.30000000000000004"/>
<circle cx="500" cy="500" r="15.0" fill="#1a1810" stroke="#3a3020" stroke-width="0.5" opacity="0.8"/>
<circle cx="500" cy="500" r="6.0" fill="#2a2518" opacity="0.6"/>
<line x1="500.0" y1="500.0" x2="512.0" y2="500.0" stroke="#2a2518" stroke-width="0.3" opacity="0.3"/>
<line x1="500.0" y1="500.0" x2="503.7" y2="511.4" stroke="#2a2518" stroke-width="0.3" opacity="0.3"/>
<line x1="500.0" y1="500.0" x2="490.3" y2="507.1" stroke="#2a2518" stroke-width="0.3" opacity="0.3"/>
<line x1="500.0" y1="500.0" x2="490.3" y2="492.9" stroke="#2a2518" stroke-width="0.3" opacity="0.3"/>
<line x1="500.0" y1="500.0" x2="503.7" y2="488.6" stroke="#2a2518" stroke-width="0.3" opacity="0.3"/>
<text x="812.6001228495529" y="187.39987715044714" fill="#8a7a5a" font-size="11" font-family="monospace" opacity="0.5">ker(N)</text>
<text x="823.1826827125508" y="413.4034611594483" fill="#8a7a5a" font-size="11" font-family="monospace" opacity="0.425">ker(N³)</text>
<text x="719.345656386476" y="558.7734914920308" fill="#8a7a5a" font-size="11" font-family="monospace" opacity="0.35">ker(N⁶)</text>
<text x="559.2201929243734" y="559.2201929243734" fill="#8a7a5a" font-size="11" font-family="monospace" opacity="0.25">ker(N¹¹)</text>
<text x="500" y="1000" fill="#3a3520" font-size="10" font-family="monospace" text-anchor="middle" opacity="0.5">geode · ker(Nᵏ) strata</text>
</svg>