<svg xmlns="http://www.w3.org/2000/svg" height="1024" preserveAspectRatio="none" style="display: block;" version="1.1" viewBox="0 0 2048 2048" width="1024">
<path d="M 0 0 L 2048 0 L 2048 2048 L 0 2048 L 0 0 z" fill="rgb(254,254,254)" transform="translate(0,0)"></path>
<path d="M 1733.7 1639.74 C 1714.94 1658.24 1697.36 1677.75 1679.01 1695.78 C 1656.77 1717.21 1633.6 1737.64 1609.54 1757 C 1488.81 1853.73 1345.93 1918.94 1193.75 1946.77 C 1133 1957.17 1071.43 1961.91 1009.8 1960.93 C 809.321 1958.21 614.954 1891.49 455.072 1770.5 C 357.337 1695.91 264.646 1593.46 205.796 1485.21 C 128.661 1343.34 86.3586 1182.39 87.5841 1020.59 C 87.8762 949.832 96.1166 879.327 112.15 810.405 C 115.298 797.126 119.702 784.17 122.961 771.025 C 163.261 608.507 251.707 467.326 370.881 350.255 C 512.932 210.709 706.756 118.985 904.047 92.5576 C 950.168 86.4535 998.285 85.4989 1044.88 85.8033 C 1263.05 87.2285 1473.89 174.104 1638.92 314.904 C 1658.65 331.736 1679.95 353.191 1698.27 371.866 C 1868.52 546.248 1962.82 780.92 1960.6 1024.61 C 1958.46 1215.29 1908.49 1414.61 1784.1 1563.58 C 1781.5 1566.7 1776.97 1564.46 1774.24 1562.96 L 1773.15 1561.35 C 1774.48 1556.03 1796.17 1531.17 1801.04 1524.1 C 1822.56 1492.82 1845.26 1459.19 1860.41 1424.23 C 1870.8 1400.25 1875.79 1368.88 1881.13 1343.27 C 1899.46 1229.84 1880.62 1138.52 1824.45 1040.02 C 1791.36 1096.36 1756.74 1138.77 1706.09 1180.13 C 1697.54 1187.11 1688.68 1193.19 1680.18 1199.91 C 1679.58 1209.11 1681.33 1216.91 1682.84 1226 C 1686.75 1246.42 1691.01 1267.34 1694.07 1287.93 C 1695.88 1300.06 1693.29 1314.56 1696.25 1326.35 C 1699.24 1338.25 1714.78 1369.39 1713.46 1379.88 C 1710.7 1383.61 1706.73 1384.38 1702.27 1385.64 L 1700.62 1386.63 C 1701.37 1390.71 1703.68 1392.98 1705.61 1396.51 C 1709.95 1404.46 1716.65 1412.95 1720.12 1421.22 C 1732.83 1451.55 1740.68 1483.07 1748.42 1514.95 C 1751.29 1523.97 1752.42 1542.99 1756.9 1550.74 C 1766.02 1566.5 1783.06 1577.36 1792.27 1593.64 C 1807.7 1620.9 1809.29 1651.34 1817.23 1680.79 C 1819.72 1690.02 1838.55 1696.4 1828 1711.42 C 1827.18 1712.79 1825.57 1714.31 1824.37 1715.34 L 1826.3 1716.32 L 1828.42 1716.26 C 1835.85 1723.83 1850.12 1731.12 1850.39 1741.84 C 1850.62 1751.17 1838.89 1753.19 1831.9 1753.06 C 1830.9 1758.91 1828.85 1777.81 1822.92 1780.8 C 1814.72 1784.93 1784.66 1788.34 1778.08 1779.34 C 1774.96 1775.09 1783.96 1768.1 1786.91 1766.53 C 1800.4 1757.68 1800.52 1746.85 1801.31 1732.36 C 1796.81 1734.44 1795.63 1735.84 1791.35 1733.03 C 1786.08 1724.46 1786.13 1712.28 1781.78 1704.38 C 1763.96 1672.05 1745.76 1641.05 1722.63 1612.2 C 1717.23 1605.46 1711.84 1593.63 1706.59 1586.12 C 1687.14 1558.31 1668.53 1530.14 1651.41 1500.82 C 1635.16 1473.68 1617.79 1447.22 1604.51 1418.34 C 1588.24 1382.98 1575.39 1346.26 1565.53 1308.63 C 1556.67 1275.99 1549.19 1258.03 1548.01 1223.44 C 1532.14 1219.27 1513.06 1216.82 1496.47 1212.5 C 1469.18 1205.39 1450.33 1195.82 1426.24 1182.56 L 1420.79 1172.16 C 1401.61 1163.82 1397.71 1159.92 1380.56 1149.26 C 1376.44 1151.98 1373.65 1153.74 1368.92 1150.28 C 1365.86 1148.06 1361.64 1145.17 1360.76 1141.26 C 1362.22 1137.84 1362.78 1138.51 1366.98 1136.19 C 1367.19 1132.88 1363.29 1132.03 1360.34 1126.66 C 1362.26 1123.03 1363.93 1126.74 1366.88 1123.49 C 1366.08 1120.08 1361.4 1115.55 1359.09 1110.98 C 1359.66 1107.48 1359.61 1108.5 1362.88 1105.47 C 1361.62 1102.2 1354.96 1095.48 1352.26 1092.51 L 1358.16 1081.92 L 1370.14 1094.44 C 1365.69 1074.32 1363.27 1064.47 1351.76 1047.65 C 1324.23 1059.85 1324.98 1024.19 1329.3 1006.92 C 1332.2 995.32 1304.19 946.406 1297.6 936.427 C 1236.84 993.06 1159.05 1027.71 1077.65 1041.21 C 1095.83 1046.67 1120.07 1048.5 1141.98 1055.27 C 1230.36 1082.54 1294.86 1133.8 1349.25 1206.83 C 1312.99 1128.75 1295.56 1066.24 1305.3 979.663 L 1306.61 978.97 L 1308 981.187 C 1311.33 1068.09 1322.78 1126.32 1359.8 1206.54 C 1366.66 1221.43 1377.81 1246.96 1386.66 1260.29 C 1397.62 1240.25 1399.81 1219.56 1402.68 1197.29 C 1403.42 1191.57 1404.21 1182.18 1405.52 1176.88 C 1408.82 1176.39 1409.88 1177.13 1412.97 1178.35 C 1416.47 1183.26 1411.17 1210.73 1409.94 1218.03 L 1408.19 1228.25 C 1411.88 1221.01 1426.43 1197.74 1422.73 1192.1 L 1423.96 1191.19 C 1444.27 1194.33 1474.9 1217.81 1498.04 1220.62 C 1500.73 1220.94 1532.29 1228.28 1533.41 1228.93 C 1532.48 1231.05 1533 1230.17 1531.96 1231.64 L 1536.52 1232 C 1536.91 1231.26 1537.3 1230.51 1537.7 1229.76 C 1538.59 1230.46 1539.48 1231.16 1540.38 1231.86 C 1545.66 1256.3 1550.77 1288.58 1557.46 1312.04 C 1564.95 1338.28 1576.74 1360.17 1586.53 1383.88 C 1598.81 1413.62 1609.17 1436.14 1624.18 1464.16 C 1609.92 1484.39 1570.41 1524.44 1548.85 1538.52 C 1582.35 1574.95 1577.5 1607.35 1577.54 1653.6 C 1577.55 1662.06 1581.69 1672 1581.79 1680.53 C 1581.89 1688.97 1569.7 1691.8 1567.03 1698.28 L 1567.72 1700.92 C 1571.44 1702.51 1583.41 1697.47 1587.45 1695.87 C 1634.08 1677.37 1677.39 1651.43 1715.72 1619.07 C 1722.66 1625.76 1728.17 1631.75 1733.7 1639.74 z" fill="rgb(31,44,76)" transform="translate(0,0)"></path>
<path d="M 1384.24 817.006 C 1431.01 910.371 1454.15 967.374 1443.93 1074.23 C 1446.24 1075.85 1449.86 1077.85 1452.35 1079.35 C 1466.05 1006.92 1450.04 943.441 1425.25 876.104 C 1437.94 892.728 1447.08 903.803 1462.83 917.881 C 1566.37 1010.45 1678.52 1043.69 1814.8 1036.92 C 1775.95 1097.86 1738.68 1146.65 1676.68 1186.79 L 1678.09 1197.56 L 1680.18 1199.91 C 1679.58 1209.11 1681.33 1216.91 1682.84 1226 L 1680.82 1225.83 C 1684.17 1259.45 1683.62 1293.82 1686.59 1327.41 C 1687.74 1340.34 1704.78 1371.93 1702.35 1383.25 C 1696.73 1376.61 1694.54 1367.93 1690.35 1361.08 C 1666.74 1322.49 1683.43 1283.75 1677.62 1241.83 C 1673.06 1208.86 1658.96 1155.84 1618.83 1150.42 C 1613.12 1149.65 1603 1151.48 1597.1 1152.31 L 1598.04 1151.75 L 1599.63 1150.84 C 1628.72 1133.82 1643.02 1145.6 1663.2 1166.71 C 1654.38 1148.93 1650.73 1140.36 1633.92 1129.31 C 1623.85 1131.49 1612.5 1135.79 1601.26 1138.39 C 1607.27 1134.77 1616.85 1129.74 1623.64 1127 C 1646.27 1117.87 1652.89 1114.6 1649.37 1088.35 C 1648.04 1078.51 1640.78 1069.38 1632.16 1063.87 C 1621.88 1057.43 1609.46 1055.31 1597.62 1058 C 1574.29 1063.22 1572.47 1080.93 1563.39 1097.93 C 1562.47 1099.65 1553.44 1108.68 1549.6 1114.81 C 1554.36 1118.53 1557.33 1120.07 1557.5 1126.74 C 1552.73 1131.95 1527.69 1118.28 1519.93 1116.51 C 1514.36 1115.25 1506.27 1110.97 1499.84 1109.42 C 1447.68 1096.82 1407.26 1065.93 1365.48 1033.12 C 1363 1025.64 1353.54 991.397 1353.13 985.223 C 1349.58 931.523 1364.78 866.999 1384.24 817.006 z" fill="rgb(254,254,254)" transform="translate(0,0)"></path>
<path d="M 1678.09 1197.56 L 1680.18 1199.91 C 1679.58 1209.11 1681.33 1216.91 1682.84 1226 L 1680.82 1225.83 C 1679.07 1216.52 1677.96 1207.04 1678.09 1197.56 z" fill="rgb(110,113,125)" transform="translate(0,0)"></path>
<path d="M 1824.37 1715.34 L 1826.3 1716.32 C 1819.39 1722.81 1811.37 1730.2 1801.77 1731.92 C 1807.58 1726.24 1816.45 1723.32 1824.37 1715.34 z" fill="rgb(215,214,221)" transform="translate(0,0)"></path>
<path d="M 225.354 1038.66 C 234.623 1050.68 242.212 1068.76 250.689 1081.89 C 305.525 1166.83 387.331 1233.48 484.829 1262.66 C 541.037 1279.47 591.496 1281.82 649.712 1278.9 C 623.418 1315.91 597.916 1374.29 588.015 1418.5 C 563.077 1529.86 586.941 1639.55 647.03 1735.42 C 648.048 1737.09 647.803 1736.16 647.629 1738.25 C 641.227 1740.48 621.079 1738.2 613.421 1737.68 C 538.118 1732.95 464.909 1710.98 399.447 1673.46 C 361.958 1651.7 313.033 1614.85 285.028 1581.46 C 149.362 1419.71 117.546 1225.14 225.354 1038.66 z" fill="rgb(254,254,254)" transform="translate(0,0)"></path>
<path d="M 1009.61 97.4443 C 1063.86 94.2842 1124.61 108.706 1174.52 129.029 C 1250.09 159.802 1306.42 206.36 1354.92 271.658 C 1361.11 279.992 1379.2 305.697 1382.52 314.059 C 1380.06 317.461 1363.52 317.971 1358.51 318.628 C 1217.5 337.135 1089.17 426.185 1030.35 557.745 L 1026.35 567.321 C 1010.43 535.334 995.97 507.967 974.1 479.489 C 916.885 404.989 831.731 351.129 741.081 327.585 C 715.792 321.017 690.58 318.039 664.788 314.687 C 675.616 293.035 696.616 265.767 712.317 247.457 C 787.326 159.657 894.42 105.617 1009.61 97.4443 z" fill="rgb(254,254,254)" transform="translate(0,0)"></path>
<path d="M 1024.34 1512.68 C 1026.96 1515.69 1036.6 1532.91 1038.87 1537.19 C 1103.76 1659.5 1242.03 1745.49 1381.63 1748.06 C 1299.6 1872.98 1177.72 1944.74 1027.85 1949.69 C 1000.59 1949.94 973.372 1947.36 946.644 1941.98 C 831.351 1919.17 733.937 1845.24 669.438 1748.78 C 714.511 1745 750.396 1737.97 793.447 1722.46 C 895.512 1686.46 978.751 1610.84 1024.34 1512.68 z" fill="rgb(254,254,254)" transform="translate(0,0)"></path>
<path d="M 603.493 324.426 C 615.708 323.473 631.001 324.405 643.301 325.029 C 617.196 368.745 598.317 416.386 587.393 466.117 C 563.15 572.321 580.912 690.413 638.964 782.952 C 634.209 778.493 629.614 774.341 624.278 770.577 C 530.213 704.225 415.289 680.298 302.778 698.005 C 250.332 707.096 207.379 724.908 160.667 748.982 C 163.727 654.62 217.643 542.755 280.779 474.391 C 366.548 381.521 478.298 330.729 603.493 324.426 z" fill="rgb(254,254,254)" transform="translate(0,0)"></path>
<path d="M 1401.8 324.031 C 1474.08 322.854 1529.99 329.537 1597.33 356.604 C 1764.56 423.816 1869.29 576.338 1889.27 752.746 C 1856.11 732.406 1821.84 718.076 1784.76 706.806 C 1676.82 676.775 1577.19 686.861 1477.84 738.898 C 1453.31 751.745 1431.22 761.995 1409.06 779.495 C 1433.73 743.121 1451.73 702.643 1462.2 659.958 C 1490.46 546.521 1472.17 438.631 1411.12 339.553 C 1407.97 334.445 1404.9 329.175 1401.8 324.031 z" fill="rgb(254,254,254)" transform="translate(0,0)"></path>
<path d="M 1640.99 701.576 C 1712.19 696.199 1783.52 710.306 1847.31 742.384 C 1860.48 748.871 1879.06 758.886 1890.69 767.496 C 1893.22 859.541 1872.58 936.565 1825.53 1016.15 C 1805.22 978.671 1780.23 947.413 1750.32 917.087 C 1687.77 855.044 1605.68 812.247 1518.25 800.021 C 1482.53 795.026 1439.49 791.481 1403.51 793.736 C 1479.86 745.163 1550.26 709.915 1640.99 701.576 z" fill="rgb(254,254,254)" transform="translate(0,0)"></path>
<path d="M 343.943 703.579 C 452.688 694.834 553.12 729.507 639.034 795.108 C 636.46 794.614 633.866 794.232 631.259 793.962 C 520.65 781.375 414.402 824.43 328.995 891.816 C 283.336 929.935 256.854 969.619 224.897 1018.4 C 175.409 941.782 156.118 851.382 159.433 761.108 C 172.833 755.074 186.741 746.841 201.051 740.404 C 246.224 720.043 294.556 707.588 343.943 703.579 z" fill="rgb(254,254,254)" transform="translate(0,0)"></path>
<path d="M 1404.11 1289.66 C 1442.4 1317.26 1478.51 1339.24 1521.66 1358.61 C 1538.87 1366.34 1557.55 1373.44 1574.05 1381.2 C 1556.46 1400.03 1539.89 1421.35 1525.96 1443.03 C 1514.69 1460.57 1480.25 1519.95 1478.55 1538.35 C 1478.11 1543.2 1479.18 1547.9 1480.47 1552.55 C 1483.98 1565.13 1489.49 1577.27 1493.61 1589.7 L 1522.93 1679.73 C 1523.92 1682.72 1525.48 1687 1525.65 1690 C 1526.2 1699.68 1522 1703.48 1532.19 1709 L 1533.43 1710.84 C 1534.17 1731.8 1494.84 1749.56 1505.84 1760.49 C 1518.38 1764.83 1543.62 1754.28 1555.7 1750.87 C 1572.98 1745.98 1589.79 1750.2 1578.35 1725.6 C 1575.67 1719.83 1573.9 1715.08 1570.29 1709.28 C 1593.32 1711.03 1670.28 1665.11 1692.17 1650.55 C 1696.8 1647.47 1716.23 1632.34 1718.85 1632.42 L 1719.64 1634.11 C 1718.07 1641.03 1672.04 1686.2 1665.21 1692.85 C 1544.01 1809.39 1393.17 1890.46 1229.11 1927.23 C 1208.2 1932.02 1161.25 1942.98 1140.63 1942.72 C 1148.86 1940.5 1157.02 1938.04 1165.11 1935.35 C 1242.27 1909.02 1313.62 1855.18 1363.58 1791.26 C 1374.44 1777.37 1385.21 1764.71 1393 1748.82 C 1402.16 1749.68 1411.37 1749.99 1420.57 1749.76 C 1447.18 1749.25 1489.39 1744.55 1514.97 1735.58 C 1517.65 1734.64 1521.24 1730.91 1523.25 1728.81 C 1510 1729.27 1494.91 1732.53 1481.57 1734.38 C 1454.12 1738.19 1428.18 1740.56 1400.44 1738.32 C 1489.4 1583.85 1484.94 1446.05 1404.11 1289.66 z" fill="rgb(254,254,254)" transform="translate(0,0)"></path>
<path d="M 584.327 803.426 C 596.808 802.977 648.294 803.284 655.935 810.274 C 656.028 815.675 647.395 828.932 644.372 833.919 C 572.504 952.514 449.771 1019.27 312.25 1024.97 C 283.755 1025.71 263.922 1024.63 235.665 1022.6 C 251.942 993.811 271.076 966.729 292.778 941.769 C 352.546 874.208 432.775 828.053 521.224 810.349 C 543.642 806.029 561.553 804.833 584.327 803.426 z" fill="rgb(254,254,254)" transform="translate(0,0)"></path>
<path d="M 235.918 1033.96 C 266.438 1035.34 299.561 1036.49 329.486 1040.82 C 463.424 1060.22 579.927 1136.4 650.731 1251.68 C 652.818 1255.08 658.247 1263.94 658.378 1267.72 C 601.17 1275.78 523.166 1265.92 468.814 1246.8 C 369.885 1211.99 280.943 1128.78 235.918 1033.96 z" fill="rgb(254,254,254)" transform="translate(0,0)"></path>
<path d="M 1424.52 803.48 C 1458.96 803.11 1493.36 806.076 1527.22 812.334 C 1612.69 828.155 1691.66 872.042 1751.76 934.747 C 1779.35 963.528 1796.21 991.902 1818.44 1024.15 C 1807.89 1024.99 1797.32 1025.7 1786.75 1026.28 C 1733.84 1030.93 1666.55 1017.47 1617.08 999.641 C 1523.78 966.03 1434 895.911 1391.09 805.099 L 1424.52 803.48 z" fill="rgb(254,254,254)" transform="translate(0,0)"></path>
<path d="M 653.248 329.625 C 657.628 335.308 669.72 361.843 673.507 369.279 C 704.122 429.401 723.707 484.547 726.93 552.548 C 730.516 628.219 713.904 693.47 683.064 762.05 C 680.024 768.811 669.7 794.15 665.661 798.575 L 664.097 798.25 C 635.942 762.62 615.001 717.951 602.832 674.323 C 577.216 581.549 583.353 482.875 620.267 393.99 C 628.859 373.309 642.282 349.182 653.248 329.625 z" fill="rgb(254,254,254)" transform="translate(0,0)"></path>
<path d="M 1390.55 330.557 C 1393.31 332.731 1401.44 345.885 1403.97 349.924 C 1430.89 392.738 1449.5 440.249 1458.81 489.962 C 1474.39 576.132 1460.7 665.039 1419.92 742.529 C 1411.58 758.107 1401.95 771.819 1391.87 786.268 L 1385.36 795.623 C 1369.71 764.604 1356.36 732.482 1345.4 699.513 C 1335.88 669.426 1329.85 638.345 1327.42 606.881 C 1318.57 504.179 1344.01 421.621 1390.55 330.557 z" fill="rgb(254,254,254)" transform="translate(0,0)"></path>
<path d="M 664.744 1277.5 C 666.995 1278.88 667.1 1279.74 668.289 1281.96 C 729.988 1397.17 750.56 1528.14 696.776 1650.95 C 692.931 1659.73 661.763 1729.96 658.049 1731.89 L 656.876 1730.53 C 621.599 1667.27 600.767 1624.02 591.337 1550.17 C 579.54 1457.78 606.781 1351.15 664.744 1277.5 z" fill="rgb(254,254,254)" transform="translate(0,0)"></path>
<path d="M 1387.25 1283.57 C 1389.95 1286.12 1396.1 1298.76 1398.26 1302.71 C 1474.42 1442.47 1475.96 1591.88 1392.69 1729.36 L 1392.17 1729.44 C 1382.43 1721.54 1344.65 1625.31 1339.3 1606.41 C 1307.37 1493.58 1330.94 1384.22 1387.25 1283.57 z" fill="rgb(254,254,254)" transform="translate(0,0)"></path>
<path d="M 903.014 104.388 C 904.757 104.115 907.138 104.141 908.958 104.087 C 906.299 105.892 889.968 110.92 885.743 112.57 C 784.802 151.997 707.376 221.251 651.956 313.766 C 642.491 314.455 630.033 313.466 620.242 313.364 C 607.501 313.345 594.767 313.92 582.08 315.088 C 482.197 323.947 395.907 360.869 318.62 423.932 L 315.328 426.499 L 314.984 425.352 C 327.182 409.696 359.452 376.56 373.642 362.554 C 519.265 218.834 701.768 133.988 903.014 104.388 z" fill="rgb(254,254,254)" transform="translate(0,0)"></path>
<path d="M 665.306 823.636 C 673.516 832.141 699.708 895.279 704.493 908.323 C 739.216 1002.99 733.571 1094.51 696.752 1187.38 C 687.824 1209.89 676.877 1231.35 666.433 1253.37 L 665.369 1253.5 C 661.32 1249.01 656.227 1237.16 653.388 1231.44 C 596.624 1117.07 587.676 983.898 643.159 867.217 C 650.153 852.508 656.567 837.494 665.306 823.636 z" fill="rgb(254,254,254)" transform="translate(0,0)"></path>
<path d="M 1135.03 103.306 C 1156.29 103.264 1197.63 113.022 1218.63 117.451 C 1260.05 125.943 1300.81 137.385 1340.59 151.689 C 1487.12 205.168 1634.78 305.921 1733.7 427.177 C 1730.12 425.157 1715.19 412.58 1711.11 409.334 C 1699.59 400.252 1687.61 391.766 1675.22 383.909 C 1608.34 342.377 1532.16 318.168 1453.57 313.469 C 1434.3 312.316 1414.51 312.931 1395.21 313.36 C 1349.2 234.801 1283.43 167.378 1200.45 128.24 C 1186.93 121.919 1173.09 116.288 1159 111.369 C 1152.67 109.166 1142.18 106.328 1136.67 104.01 L 1135.03 103.306 z" fill="rgb(254,254,254)" transform="translate(0,0)"></path>
<path d="M 664.725 325.766 C 728.604 331.896 778.349 346.09 835.606 375.913 C 900.163 409.527 954.031 460.526 991.126 523.148 C 999.974 538.033 1009.93 556.74 1015.05 573.073 C 1001.71 573.045 953.86 561.988 939.546 558.124 C 844.902 532.642 762.296 474.56 706.294 394.121 C 691.36 373.052 677.692 348.273 664.725 325.766 z" fill="rgb(254,254,254)" transform="translate(0,0)"></path>
<path d="M 1370.43 327.358 C 1372.78 326.842 1374.37 326.875 1376.78 326.773 L 1378.23 328.144 C 1377.56 336.348 1341.96 394.167 1334.93 404.159 C 1284.61 474.638 1212.85 526.952 1130.36 553.291 C 1102.21 562.192 1073.6 567.327 1044.63 572.412 C 1041.26 572.893 1040.78 573.072 1037.29 572.782 L 1036.04 571.188 C 1036.31 567.224 1039.13 563.744 1040.97 559.754 C 1052.09 535.154 1065.98 511.901 1082.36 490.446 C 1155.95 393.103 1250.61 343.95 1370.43 327.358 z" fill="rgb(254,254,254)" transform="translate(0,0)"></path>
<path d="M 1024.4 594.752 C 1032.39 605.084 1055.81 663.997 1060.91 679.064 C 1090.97 767.853 1090.69 860.95 1059.82 949.404 C 1051.94 971.979 1036.3 1005.85 1025.54 1027.26 C 1020.52 1021.27 997.593 968.52 994.23 959.324 C 960.503 869.344 958.74 770.504 989.235 679.379 C 999.282 648.872 1011.01 623.719 1024.4 594.752 z" fill="rgb(254,254,254)" transform="translate(0,0)"></path>
<path d="M 1024.43 1053.74 C 1027.84 1059 1031.1 1067.44 1034.28 1073.22 C 1104.16 1200.39 1096.33 1358.14 1025.94 1484.08 L 1025.26 1483.92 C 1021.2 1479.77 995.992 1416.68 992.547 1406.76 C 947.697 1277.64 965.994 1173.7 1024.43 1053.74 z" fill="rgb(254,254,254)" transform="translate(0,0)"></path>
<path d="M 1033.81 1504.88 C 1048.77 1504.85 1072.5 1509.43 1087.36 1512.59 C 1138.06 1523.36 1195.35 1542.93 1238.22 1572.74 C 1287.72 1607.16 1332.72 1652.94 1362.73 1705.38 C 1367.02 1712.89 1378.16 1729.64 1379.72 1737.62 C 1355.07 1740.57 1293.25 1724.85 1268.85 1716.36 C 1160.39 1678.6 1084.04 1607.2 1033.81 1504.88 z" fill="rgb(254,254,254)" transform="translate(0,0)"></path>
<path d="M 1009.78 1505.42 C 1012.13 1505.16 1012.11 1505.26 1014.5 1505.44 L 1015.28 1507.37 C 1014.08 1513.01 1010.97 1516.67 1008.46 1521.72 C 947.572 1644.43 813.873 1727.97 678.2 1737.25 C 675.789 1737.36 675.71 1737.3 673.327 1736.8 C 672.37 1729.19 709.152 1673.72 716.214 1664.48 C 762.069 1604.53 827.405 1556.05 898.584 1530.73 C 934.519 1517.94 972.052 1510.52 1009.78 1505.42 z" fill="rgb(254,254,254)" transform="translate(0,0)"></path>
<path d="M 152.528 1338.07 C 152.4 1337.73 152.273 1337.39 152.145 1337.05 C 99.2397 1187.43 85.2831 1026.81 111.589 870.313 C 116.234 842.937 122.588 808.155 130.937 781.626 C 136.295 764.601 147.069 721.213 154.517 706.469 L 154.371 707.33 C 138.452 799.728 151.645 894.791 192.127 979.362 C 200.195 996.242 208.245 1012.75 219.108 1028.02 C 160.424 1125.39 138.356 1221.57 154.625 1334.16 C 153.69 1336.8 154.25 1336.02 152.528 1338.07 z" fill="rgb(254,254,254)" transform="translate(0,0)"></path>
<path d="M 1342.44 1277.41 C 1351.04 1276.11 1368.3 1276.92 1377.34 1277.26 C 1366.87 1296.43 1354.94 1314.76 1341.65 1332.1 C 1275.53 1420.24 1176.53 1477.84 1067.23 1491.77 C 1056.29 1492.94 1045.16 1493.76 1034.15 1494.88 C 1051.1 1464.18 1066.1 1438.2 1088.61 1411.22 C 1152.6 1335.3 1243.65 1287.3 1342.44 1277.41 z" fill="rgb(254,254,254)" transform="translate(0,0)"></path>
<path d="M 1895.24 712.832 C 1898.6 716.526 1914.23 770.422 1916.38 778.149 C 1962.15 946.305 1960.52 1123.84 1911.66 1291.13 C 1906.32 1308.81 1897.47 1340.41 1890.18 1356.43 C 1891.15 1350.24 1892.27 1343.95 1893.31 1337.76 C 1906.57 1264.73 1897.98 1186.06 1873.34 1116.02 C 1862.24 1084.47 1847.5 1058.11 1831.07 1029.27 C 1881.04 938.016 1907.3 861.723 1900.73 755.599 C 1899.93 742.694 1896.99 725.979 1895.24 712.832 z" fill="rgb(254,254,254)" transform="translate(0,0)"></path>
<path d="M 673.77 809.763 C 706.017 812.899 733.769 815.965 764.965 825.419 C 875.985 859.063 961.896 933.189 1016.23 1034.93 C 998.759 1035.11 968.244 1030.5 951.134 1026.87 C 857.304 1006.98 768.874 953.343 712.049 875.5 C 697.27 855.255 687.623 831.077 673.77 809.763 z" fill="rgb(254,254,254)" transform="translate(0,0)"></path>
<path d="M 1015.01 1046.53 L 1015.51 1047.08 C 1014.9 1051.14 1007.82 1061 1005.68 1065.18 C 943.435 1187.1 814.474 1259.63 677.027 1266.43 C 676.345 1265.66 676.271 1265.09 675.855 1264.04 C 679.265 1248.45 726.97 1187.59 739.05 1173.87 C 805.057 1098.9 915.41 1050.96 1015.01 1046.53 z" fill="rgb(254,254,254)" transform="translate(0,0)"></path>
<path d="M 338.028 1644.88 C 358.524 1661.66 380.691 1675.34 403.822 1688.04 C 484.832 1732.5 564.122 1748.96 655.856 1749.08 C 704.275 1822.5 765.583 1879.68 844.774 1918.61 C 855.63 1923.96 866.754 1928.74 878.101 1932.93 C 884.635 1935.32 898.244 1939.67 903.874 1942.63 C 726.527 1919.51 559.616 1845.71 423.17 1730.08 C 391.113 1702.83 367.075 1677.92 338.018 1648.29 L 338.028 1644.88 z" fill="rgb(254,254,254)" transform="translate(0,0)"></path>
<path d="M 1035.49 1046.36 C 1059.45 1048.26 1083.26 1051.76 1106.76 1056.82 C 1223.89 1082.23 1304.54 1150.31 1366.83 1249.93 C 1370.13 1255.2 1373.63 1260.49 1377 1265.73 C 1327.13 1262.46 1265.26 1251.24 1220.04 1230.26 C 1154.41 1199.83 1100.96 1152.48 1061.47 1092.1 C 1053.23 1079.5 1040.58 1060.37 1035.49 1046.36 z" fill="rgb(254,254,254)" transform="translate(0,0)"></path>
<path d="M 1008.44 583.382 C 1012.87 583.153 1013.27 582.319 1016.02 584.31 C 1015.93 588.145 1012.57 591.424 1010.66 595.302 C 999.638 617.691 985.588 639.522 970.492 659.469 C 927.474 716.311 854.758 761.106 786.904 781.015 C 761.402 788.497 717.954 795.126 691.144 798.739 C 687.112 799.359 682.819 799.728 678.745 800.151 C 737.377 693.954 827.105 618.14 947.353 592.892 C 967.517 588.659 988.044 586.195 1008.44 583.382 z" fill="rgb(254,254,254)" transform="translate(0,0)"></path>
<path d="M 1033.66 583.836 C 1057.71 583.938 1089.37 590.561 1112.51 595.962 C 1206.38 617.871 1285.94 673.686 1342.82 750.841 C 1353.98 765.989 1362.41 779.85 1372.33 796.032 C 1327.76 796.397 1266.11 783.985 1225.09 767.238 C 1154.3 738.341 1095.71 692.238 1056.51 626.098 C 1047.33 610.601 1040.93 600.993 1033.66 583.836 z" fill="rgb(254,254,254)" transform="translate(0,0)"></path>
<path d="M 679.258 1277.37 C 721.804 1274.99 790.557 1292.84 828.431 1310.52 C 889.474 1339.01 941.693 1381.32 981.247 1435.91 C 995.999 1456.27 1007.04 1470.43 1016.09 1494.86 C 966.57 1495.54 888.998 1471.24 846.523 1447.53 C 786.655 1414.1 734.58 1368.48 698.252 1310.03 C 692.72 1301.13 682.047 1286.93 679.258 1277.37 z" fill="rgb(254,254,254)" transform="translate(0,0)"></path>
<path d="M 623.812 882.826 C 623.684 885.926 615.866 906.365 614.184 911.502 C 589.969 985.419 589.731 1066.36 608.972 1141.43 C 614.269 1162.09 621.882 1182.54 628.943 1202.65 C 588.26 1152.43 550.822 1118.54 494.105 1086.22 C 451.109 1061.88 391.207 1039.43 342.243 1032.96 C 463.692 1017.44 543.947 975.234 623.812 882.826 z" fill="rgb(254,254,254)" transform="translate(0,0)"></path>
<path d="M 1342.52 411.925 C 1344.63 413.513 1340.45 421.694 1339.64 423.977 C 1301.35 532.249 1309.98 639.453 1350.91 744.911 C 1315.08 697.2 1277.81 662.012 1226.54 631.037 C 1193.72 607.805 1116.53 582.618 1076.39 578.266 C 1096.37 572.396 1112.92 569.78 1134.71 562.608 C 1204.77 540.153 1267.59 499.442 1316.71 444.66 C 1325.14 435.186 1334.68 422.194 1342.52 411.925 z" fill="rgb(254,254,254)" transform="translate(0,0)"></path>
<path d="M 703.219 407.555 C 703.334 407.622 741.237 452.254 747.1 458.143 C 791.09 502.329 848.404 539.534 907.638 559.473 C 929.45 566.815 951.608 571.278 973.779 577.177 C 922.222 583.805 874.178 603.346 828.551 627.475 C 775.51 660.602 742.341 689.723 705.305 740.027 C 713.048 716.696 722.227 690.687 727.384 666.677 C 747.588 572.615 738.621 495.18 703.219 407.555 z" fill="rgb(254,254,254)" transform="translate(0,0)"></path>
<path d="M 1063.14 655.723 C 1066.63 658.236 1076.05 671.143 1079.26 675.054 C 1130.27 737.262 1206.7 779.106 1284.8 796.079 C 1300.85 799.566 1316.71 801.643 1332.78 804.662 C 1296.9 814.146 1271.38 823.012 1237.33 837.498 C 1227.07 829.608 1221.84 826.758 1209.47 823.572 C 1214.11 829.317 1220.72 836.289 1225.75 841.905 C 1222.14 843.934 1217.59 846.063 1213.82 847.958 C 1146.06 880.679 1112.28 909.006 1064.42 966.569 C 1094.28 885.058 1102.76 802.528 1082.43 717.623 C 1077.12 695.439 1070 677.139 1063.14 655.723 z" fill="rgb(254,254,254)" transform="translate(0,0)"></path>
<path d="M 708.831 1344.76 C 710.635 1346.23 718.288 1355.57 720.426 1357.99 C 730.813 1369.73 740.608 1381.81 752.093 1392.57 C 812.555 1449.39 888.442 1487.09 970.242 1500.96 C 911.975 1511.09 869.135 1527.73 818.415 1557.7 C 768.656 1590.8 733.765 1622.51 698.788 1671.81 C 748.232 1552.86 750.97 1466.98 708.831 1344.76 z" fill="rgb(254,254,254)" transform="translate(0,0)"></path>
<path d="M 1344.56 1345.95 C 1346.52 1347.21 1342.79 1354.86 1341.93 1357.1 C 1331.67 1383.48 1324.28 1410.89 1319.9 1438.85 C 1306.48 1524.72 1318.27 1590.08 1351.01 1669.08 C 1318.35 1623.83 1277.19 1585.37 1229.83 1555.85 C 1186.09 1530.94 1131.98 1507.34 1081.72 1500.82 L 1082.26 1500.74 C 1164.26 1488.31 1236.18 1452.09 1297.1 1396.25 C 1316.5 1378.47 1328.82 1367.22 1344.56 1345.95 z" fill="rgb(254,254,254)" transform="translate(0,0)"></path>
<path d="M 986.807 655.829 C 986.49 660.046 980.561 675.741 978.971 680.621 C 956.01 751.071 951.962 827.48 966.576 900.116 C 971.236 923.282 979.384 947.865 986.755 970.45 C 959.642 928.654 904.497 882.938 862.232 857.225 C 824.057 835.115 762.807 808.374 718.867 805.052 C 721.995 804.695 725.117 804.288 728.232 803.83 C 830.541 788.736 924.612 739.853 986.807 655.829 z" fill="rgb(254,254,254)" transform="translate(0,0)"></path>
<path d="M 1232.84 849.883 C 1249.41 862.475 1283.7 907.372 1292.28 926.453 C 1239.49 979.523 1163.57 1013.93 1090.76 1028.34 C 1071.49 1031.8 1054.24 1033.32 1034.72 1034.89 C 1059.57 979.257 1107.32 926.588 1157.14 891.439 C 1177.17 877.306 1210.73 860.494 1232.84 849.883 z" fill="rgb(254,254,254)" transform="translate(0,0)"></path>
<path d="M 710.091 890.612 C 712.222 891.796 745.148 929.881 752.748 936.767 C 815.989 994.067 886.738 1025.24 969.95 1041.05 C 915.713 1050.12 875.255 1064.98 826.474 1090.91 C 782.601 1114.84 732.024 1160.81 702.854 1201.68 C 735.909 1115.47 748.383 1043.04 728.547 950.391 C 724.124 929.733 716.097 910.741 710.091 890.612 z" fill="rgb(254,254,254)" transform="translate(0,0)"></path>
<path d="M 982.551 1123.8 C 983.003 1128.11 973.867 1154.48 972.094 1160.79 C 945.423 1255.65 956.534 1343.83 992.106 1433.8 C 958.924 1387.27 923.772 1354.31 875.611 1324.09 C 826.513 1294.07 784.473 1281.46 728.752 1270.88 C 797.993 1261.8 872.338 1225.36 926.56 1181.36 C 946.685 1165.02 966.137 1143.73 982.551 1123.8 z" fill="rgb(254,254,254)" transform="translate(0,0)"></path>
<path d="M 1065.85 1117.84 C 1075.16 1126.61 1088.89 1147.77 1101.65 1159.91 C 1147.28 1203.35 1198.47 1236.11 1258.52 1255.77 C 1278.34 1262.26 1300.76 1266.24 1320.93 1270.14 C 1268.92 1278.13 1228.6 1293.2 1182.6 1318.42 C 1134.98 1346.03 1093.98 1383.72 1062.48 1428.86 C 1092.91 1342.42 1103.5 1269.77 1084.02 1178.28 C 1079.35 1156.36 1071.68 1138.58 1065.85 1117.84 z" fill="rgb(254,254,254)" transform="translate(0,0)"></path>
<path d="M 1537.62 1239.95 C 1539.74 1242.99 1538.99 1256.3 1538.88 1260.87 C 1537.97 1299.18 1552.73 1332.68 1568.63 1367.1 C 1537.59 1355.43 1507.47 1341.45 1478.51 1325.28 C 1453.77 1310.53 1426.27 1293.98 1403.56 1276.59 C 1456.89 1278.26 1491.49 1266.99 1537.62 1239.95 z" fill="rgb(254,254,254)" transform="translate(0,0)"></path>
<path d="M 1373.68 806.275 C 1374.76 806.106 1375.43 806.343 1376.59 806.516 L 1376.95 808.409 C 1366.99 835.566 1324.02 896.812 1303.06 917.39 C 1296.75 906.664 1291.36 897.34 1284.13 887.205 C 1272.13 870.503 1260.81 859.162 1246.25 845.053 C 1287.33 827.915 1330.02 814.925 1373.68 806.275 z" fill="rgb(254,254,254)" transform="translate(0,0)"></path>
<path d="M 1433.72 1203.62 C 1466.43 1225.31 1486.84 1230.35 1524.17 1235.36 C 1507.48 1244.88 1494.07 1250.34 1476.25 1256.46 C 1452.61 1264.61 1420.72 1266.28 1395.42 1267.06 C 1399.92 1260.62 1404.97 1254.83 1408.98 1247.88 C 1417.51 1233.1 1424.81 1218.22 1433.72 1203.62 z" fill="rgb(254,254,254)" transform="translate(0,0)"></path>
<path d="M 1377.62 1074.81 C 1383.76 1079.59 1389.12 1087.76 1395.04 1092.75 C 1437.69 1128.67 1479.89 1166.16 1539.23 1166.15 C 1543.99 1166.15 1573.96 1162.87 1574.57 1163.28 L 1571.8 1165.07 C 1533.7 1175.51 1512.49 1173.93 1473.89 1161.36 C 1464.92 1158.43 1456.35 1153.43 1447.15 1150.26 L 1445.99 1149.87 C 1442.77 1150.49 1438.95 1151.53 1435.7 1152.32 C 1431.44 1148.68 1411.18 1134.04 1409.77 1130.96 C 1402.4 1114.82 1397.45 1102.85 1384.04 1090.42 C 1383.42 1089.84 1378.26 1076.45 1377.62 1074.81 z" fill="rgb(254,254,254)" transform="translate(0,0)"></path>
<path d="M 1356.61 864.748 C 1357.15 866.806 1348.94 906.545 1347.85 911.577 C 1341.25 942.261 1342.79 967.753 1344.42 998.552 C 1339.36 989.971 1336.06 982.317 1332 973.281 C 1325.3 957.616 1316.5 942.459 1308.15 927.61 C 1328.71 905.86 1340.57 889.749 1356.61 864.748 z" fill="rgb(254,254,254)" transform="translate(0,0)"></path>
<path d="M 1542.23 1543.72 C 1554.09 1554.53 1564.45 1586.43 1565.96 1604.52 C 1567.53 1623.26 1569.04 1658.14 1568.77 1678.44 C 1568.28 1679.07 1567.78 1679.7 1567.28 1680.33 C 1557.33 1667.52 1568.78 1582.87 1540.75 1550.18 L 1539.58 1548.82 C 1539.3 1546.39 1540.13 1546.4 1542.23 1543.72 z" fill="rgb(254,254,254)" transform="translate(0,0)"></path>
<path d="M 1532.19 1709 C 1538.21 1708.73 1554.98 1707.58 1559.65 1709.27 C 1556.16 1710.17 1553.8 1710.7 1550.22 1711.07 C 1545.22 1711.6 1537.65 1708.79 1533.43 1710.84 L 1532.19 1709 z" fill="rgb(215,214,221)" transform="translate(0,0)"></path>
<path d="M 316.13 1625.54 C 321.109 1629 326.364 1634.07 330.88 1638.24 L 328.985 1639.72 C 324.124 1635.73 319.727 1630.69 316.13 1625.54 z" fill="rgb(82,90,118)" transform="translate(0,0)"></path>
<path d="M 154.625 1334.16 C 155.868 1341.17 156.965 1348.21 157.914 1355.27 C 156.529 1351.07 153.296 1341.95 152.528 1338.07 C 154.25 1336.02 153.69 1336.8 154.625 1334.16 z" fill="rgb(215,214,221)" transform="translate(0,0)"></path>
<path d="M 330.88 1638.24 C 333.232 1640.43 335.642 1642.74 338.028 1644.88 L 338.018 1648.29 C 334.918 1645.04 332.313 1642.69 328.985 1639.72 L 330.88 1638.24 z" fill="rgb(166,166,182)" transform="translate(0,0)"></path>
<path d="M 1307.25 964.975 C 1307.53 970.099 1308.03 976.137 1308 981.187 L 1306.61 978.97 L 1305.3 979.663 L 1307.25 964.975 z" fill="rgb(110,113,125)" transform="translate(0,0)"></path>
<metadata><recraft-signature>{"signed_by": "recraft", "signature_b64": "zNzo3TfQzZSVsz7xn9ReznNDiR7zqM6SOqJxzbCgUa4EAf8NuLcj/hwiZrZHmdqtfX4W8PG/ao8v7eRcVgUrCQ==", "signing_algo": "Ed25519", "generation_timestamp": 1780154059, "identifier": "e937257b-151e-442b-9196-1d1309a105cc"}</recraft-signature></metadata></svg>